<?xml version="1.0" encoding="utf-8"?>
<!-- Generator: Adobe Illustrator 18.0.0, SVG Export Plug-In . SVG Version: 6.00 Build 0)  -->
<!DOCTYPE svg PUBLIC "-//W3C//DTD SVG 1.1//EN" "http://www.w3.org/Graphics/SVG/1.1/DTD/svg11.dtd">
<svg version="1.1" id="Layer_1" xmlns="http://www.w3.org/2000/svg" xmlns:xlink="http://www.w3.org/1999/xlink" x="0px" y="0px"
	 viewBox="0 0 19.8 14" enable-background="new 0 0 19.8 14" xml:space="preserve">
<g>
	<g>
		<defs>
			<path id="SVGID_1_" d="M19.2,0H0.6C0.3,0,0,0.1,0,0.2v1.5C0,1.9,0.3,2,0.6,2h18.6c0.3,0,0.6-0.1,0.6-0.2V0.2
				C19.8,0.1,19.5,0,19.2,0"/>
		</defs>
		<clipPath id="SVGID_2_">
			<use xlink:href="#SVGID_1_"  overflow="visible"/>
		</clipPath>
		
			<rect x="-5" y="-5" clip-path="url(#SVGID_2_)" fill-rule="evenodd" clip-rule="evenodd" fill="#FFFFFF" width="29.8" height="12"/>
	</g>
</g>
<g>
	<g>
		<defs>
			<path id="SVGID_3_" d="M19.2,6H0.6C0.3,6,0,6.1,0,6.2v1.5C0,7.9,0.3,8,0.6,8h18.6c0.3,0,0.6-0.1,0.6-0.2V6.2
				C19.8,6.1,19.5,6,19.2,6"/>
		</defs>
		<clipPath id="SVGID_4_">
			<use xlink:href="#SVGID_3_"  overflow="visible"/>
		</clipPath>
		
			<rect x="-5" y="1" clip-path="url(#SVGID_4_)" fill-rule="evenodd" clip-rule="evenodd" fill="#FFFFFF" width="29.8" height="12"/>
	</g>
</g>
<g>
	<g>
		<defs>
			<path id="SVGID_5_" d="M19.2,12H0.6C0.3,12,0,12.1,0,12.2v1.5C0,13.9,0.3,14,0.6,14h18.6c0.3,0,0.6-0.1,0.6-0.2v-1.5
				C19.8,12.1,19.5,12,19.2,12"/>
		</defs>
		<clipPath id="SVGID_6_">
			<use xlink:href="#SVGID_5_"  overflow="visible"/>
		</clipPath>
		
			<rect x="-5" y="7" clip-path="url(#SVGID_6_)" fill-rule="evenodd" clip-rule="evenodd" fill="#FFFFFF" width="29.8" height="12"/>
	</g>
</g>
</svg>
